<?xml version="1.0" standalone="no"?>
<!DOCTYPE svg PUBLIC "-//W3C//DTD SVG 20010904//EN"
 "http://www.w3.org/TR/2001/REC-SVG-20010904/DTD/svg10.dtd">
<svg version="1.0" xmlns="http://www.w3.org/2000/svg"
 width="700.000000pt" height="700.000000pt" viewBox="0 0 700.000000 700.000000"
 preserveAspectRatio="xMidYMid meet">
<metadata>
Created by potrace 1.14, written by Peter Selinger 2001-2017
</metadata>
<g transform="translate(0.000000,700.000000) scale(0.100000,-0.100000)"
fill="#000000" stroke="none">
<path d="M3062 6673 c0 -181 -1 -336 -1 -345 -1 -11 -13 -20 -38 -25 -21 -4
-40 -8 -43 -8 -3 -1 -25 -5 -50 -9 -113 -20 -333 -86 -490 -148 -238 -93 -582
-299 -762 -456 -103 -89 -203 -186 -278 -268 -80 -89 -105 -118 -166 -199 -54
-71 -89 -124 -182 -270 -14 -22 -49 -85 -77 -140 -124 -242 -211 -488 -265
-755 -12 -57 -23 -107 -25 -109 -3 -2 -158 -4 -345 -4 l-340 0 0 -437 0 -437
340 0 c187 0 342 -2 345 -4 2 -3 18 -70 35 -151 27 -129 86 -329 121 -413 6
-16 13 -36 15 -43 2 -12 12 -33 79 -177 170 -364 453 -721 780 -986 373 -301
791 -493 1288 -589 42 -8 57 -16 58 -28 0 -9 1 -164 1 -344 l1 -328 437 0 437
0 1 317 c0 175 1 330 1 345 1 27 4 29 81 43 401 75 775 232 1105 464 92 64 86
60 185 141 115 95 243 221 367 361 17 20 62 79 100 130 258 349 422 714 509
1133 13 66 26 122 29 124 2 2 157 4 345 4 l340 0 0 438 0 437 -342 0 c-387 0
-350 -9 -363 85 -3 24 -10 59 -15 78 -5 19 -14 58 -21 85 -29 124 -97 328
-144 429 -7 17 -32 70 -54 119 -94 206 -282 485 -456 676 -193 212 -390 373
-669 545 -148 92 -406 204 -623 270 -61 19 -169 47 -240 61 -70 15 -130 28
-132 31 -2 2 -4 157 -4 344 l0 340 -437 0 -437 0 -1 -327z m-1 -1263 c1 -14 1
-636 0 -657 -1 -12 -21 -26 -64 -42 -206 -78 -437 -265 -574 -463 -56 -80
-143 -245 -143 -270 0 -39 -19 -41 -360 -41 -182 0 -332 2 -335 5 -7 7 42 171
81 272 222 564 684 991 1269 1171 125 39 125 39 126 25z m1059 -43 c499 -162
932 -546 1160 -1030 50 -106 110 -271 128 -354 9 -37 8 -43 -7 -44 -19 -1
-641 -1 -657 0 -7 1 -15 13 -19 28 -11 47 -81 180 -142 271 -75 114 -233 272
-352 350 -91 61 -215 125 -266 138 -14 3 -25 14 -26 23 -1 22 -1 609 0 644 1
33 -3 33 181 -26z m-522 -1441 c5 -3 21 -7 35 -10 39 -7 126 -59 168 -100 247
-241 134 -662 -199 -740 -54 -12 -147 -14 -192 -3 -90 21 -191 79 -237 137
-69 85 -102 165 -107 263 -14 263 194 473 456 462 37 -2 71 -6 76 -9z m-1357
-865 c21 -1 28 -7 34 -28 11 -47 92 -200 147 -281 68 -98 231 -262 328 -328
78 -53 207 -122 273 -145 31 -11 37 -18 38 -44 0 -16 1 -169 1 -340 l1 -310
-29 3 c-57 7 -264 81 -378 135 -101 49 -323 182 -351 212 -5 6 -30 27 -55 47
-72 57 -211 197 -277 278 -169 210 -308 478 -371 720 -11 41 -18 77 -17 80 2
4 526 4 656 1z m3172 0 c21 -2 -73 -275 -147 -426 -249 -508 -704 -884 -1251
-1034 -38 -11 -72 -18 -74 -15 -2 2 -4 153 -4 336 l0 333 24 12 c13 6 67 33
119 59 52 25 129 69 170 98 97 66 261 230 328 328 55 81 136 234 147 280 4 15
14 28 23 30 13 2 638 1 665 -1z"/>
</g>
</svg>
